HIERARCHY
ROOT Hips
{
	OFFSET -1.602300 6.242603 43.997101
	CHANNELS 6 Xposition Yposition Zposition Zrotation Xrotation Yrotation
	JOINT Chest
	{
		OFFSET -0.204900 1.598101 7.917301
		CHANNELS 6 Xposition Yposition Zposition Zrotation Xrotation Yrotation
		JOINT Chest2
		{
			OFFSET 0.000000 0.000000 3.404099
			CHANNELS 6 Xposition Yposition Zposition Zrotation Xrotation Yrotation
			JOINT Neck
			{
				OFFSET 0.000000 0.000000 7.928600
				CHANNELS 6 Xposition Yposition Zposition Zrotation Xrotation Yrotation
				JOINT Head
				{
					OFFSET 0.000000 0.000000 2.173897
					CHANNELS 6 Xposition Yposition Zposition Zrotation Xrotation Yrotation
					End Site
					{
						OFFSET 0.000000 0.000001 10.404503
					}
				}
			}
			JOINT LeftCollar
			{
				OFFSET 2.833800 -1.396299 4.843300
				CHANNELS 6 Xposition Yposition Zposition Zrotation Xrotation Yrotation
				JOINT LeftShoulder
				{
					OFFSET 4.363600 0.000000 0.000000
					CHANNELS 6 Xposition Yposition Zposition Zrotation Xrotation Yrotation
					JOINT LeftElbow
					{
						OFFSET 0.000000 -0.000001 -10.306900
						CHANNELS 6 Xposition Yposition Zposition Zrotation Xrotation Yrotation
						JOINT LeftWrist
						{
							OFFSET 0.000000 -0.000001 -12.404900
							CHANNELS 6 Xposition Yposition Zposition Zrotation Xrotation Yrotation
							End Site
							{
								OFFSET 0.000000 0.000000 -2.173901
							}
						}
					}
				}
			}
			JOINT RightCollar
			{
				OFFSET -2.354800 -1.897200 5.063099
				CHANNELS 6 Xposition Yposition Zposition Zrotation Xrotation Yrotation
				JOINT RightShoulder
				{
					OFFSET -4.375800 0.000000 0.000000
					CHANNELS 6 Xposition Yposition Zposition Zrotation Xrotation Yrotation
					JOINT RightElbow
					{
						OFFSET 0.000000 -0.000001 -10.005001
						CHANNELS 6 Xposition Yposition Zposition Zrotation Xrotation Yrotation
						JOINT RightWrist
						{
							OFFSET 0.000000 -0.000001 -13.174900
							CHANNELS 6 Xposition Yposition Zposition Zrotation Xrotation Yrotation
							End Site
							{
								OFFSET 0.000000 0.000000 -2.173901
							}
						}
					}
				}
			}
		}
	}
	JOINT LeftHip
	{
		OFFSET 2.240600 0.386800 -2.614101
		CHANNELS 6 Xposition Yposition Zposition Zrotation Xrotation Yrotation
		JOINT LeftKnee
		{
			OFFSET 0.000000 -0.000001 -18.592899
			CHANNELS 6 Xposition Yposition Zposition Zrotation Xrotation Yrotation
			JOINT LeftAnkle
			{
				OFFSET 0.000000 -0.000001 -18.765800
				CHANNELS 6 Xposition Yposition Zposition Zrotation Xrotation Yrotation
				End Site
				{
					OFFSET 0.000000 -8.655000 0.000000
				}
			}
		}
	}
	JOINT RightHip
	{
		OFFSET -2.014900 -0.220900 -2.615898
		CHANNELS 6 Xposition Yposition Zposition Zrotation Xrotation Yrotation
		JOINT RightKnee
		{
			OFFSET 0.000000 -0.000001 -18.633900
			CHANNELS 6 Xposition Yposition Zposition Zrotation Xrotation Yrotation
			JOINT RightAnkle
			{
				OFFSET 0.000000 -0.000001 -18.285101
				CHANNELS 6 Xposition Yposition Zposition Zrotation Xrotation Yrotation
				End Site
				{
					OFFSET 0.000000 -7.524500 0.000000
				}
			}
		}
	}
}
MOTION
Frames: 10
Frame Time: 0.041667
-7.852601 21.249702 10.175308 -31.078430 28.693034 -4.292913 -0.204897 1.598101 7.917299 -11.094062 3.530876 10.737518 0.000002 0.000004 3.404096 -0.033585 -17.273487 -1.486746 0.000001 -0.000003 7.928599 45.726023 -9.058872 -10.265470 0.000000 0.000001 2.173899 9.424597 -3.595315 11.069606 2.833805 -1.396302 4.843307 13.467257 3.712999 20.602103 4.363590 0.000002 -0.000005 1.504257 26.190721 -87.034519 -0.000002 -0.000003 -10.306890 586.996347 -182.694310 536.818882 0.000009 -0.000003 -12.404898 -5.548315 361.919894 -313.393012 -2.354798 -1.897202 5.063103 -7.128747 -1.412428 12.781415 -4.375788 -0.000000 -0.000010 25.231561 -18.923092 133.360031 0.000003 0.000001 -10.004994 -617.432381 -175.006413 -545.828065 -0.000011 0.000004 -13.174900 -196.205749 -145.369894 112.853426 2.240601 0.386805 -2.614103 128.399961 -41.731404 138.216937 -0.000001 -0.000000 -18.592899 -12.084252 38.918817 16.013659 0.000001 -0.000000 -18.765799 -27.719356 24.086823 13.102171 -2.014897 -0.220891 -2.615905 -97.574771 -37.205724 -104.496970 -0.000000 0.000005 -18.633890 80.330347 -15.550432 -149.977922 -0.000006 -0.000006 -18.285084 -70.998642 27.040137 -155.019995
-7.905802 21.114100 10.251709 -31.245636 29.821607 -4.204800 -0.204899 1.598100 7.917309 -11.217652 3.031229 10.705230 -0.000000 0.000005 3.404099 0.041142 -17.183528 -1.479497 -0.000004 -0.000002 7.928602 47.041357 -9.298030 -10.196356 0.000002 0.000000 2.173913 9.527682 -3.538880 11.247389 2.833799 -1.396301 4.843307 13.886996 3.444315 20.775262 4.363593 0.000000 -0.000002 1.655040 26.283398 -87.878211 0.000000 -0.000003 -10.306895 586.978480 -183.213186 536.479995 0.000008 -0.000002 -12.404896 -5.103885 361.985901 -313.577919 -2.354801 -1.897200 5.063102 -7.964449 -2.167592 12.926211 -4.375793 0.000003 -0.000014 24.476625 -16.614232 132.759493 0.000003 0.000001 -10.004991 -614.412071 -175.896359 -542.852070 -0.000002 0.000008 -13.174900 -206.896703 -147.656150 113.859151 2.240601 0.386801 -2.614098 129.011113 -41.337060 139.065507 -0.000000 -0.000001 -18.592899 -11.324933 38.279198 15.362917 0.000000 -0.000001 -18.765799 -29.010856 24.177410 13.570221 -2.014898 -0.220898 -2.615901 -97.959270 -37.062758 -105.335293 -0.000000 0.000005 -18.633886 79.891712 -16.239780 -149.972677 -0.000002 -0.000008 -18.285082 -71.382457 27.071204 -154.778876
-7.958003 20.990801 10.318501 -31.299263 30.879821 -4.131905 -0.204898 1.598100 7.917307 -11.397348 2.562597 10.635728 0.000001 0.000006 3.404102 0.098962 -17.107517 -1.473294 -0.000002 -0.000001 7.928604 48.062716 -9.491659 -10.133787 0.000001 -0.000000 2.173906 9.578805 -3.490257 11.399186 2.833802 -1.396299 4.843308 14.250117 3.223835 20.902498 4.363593 0.000000 -0.000004 1.833385 26.345240 -88.650501 0.000001 -0.000002 -10.306898 587.136831 -183.567263 536.232141 0.000009 -0.000002 -12.404897 -4.778277 362.040871 -313.729686 -2.354800 -1.897199 5.063105 -8.697356 -2.823583 13.031737 -4.375793 0.000005 -0.000008 23.246720 -14.148971 132.183531 0.000001 0.000001 -10.004995 -610.925232 -176.846589 -540.791757 -0.000006 0.000008 -13.174905 -218.540399 -150.156491 114.697003 2.240600 0.386802 -2.614107 129.621308 -40.989198 140.014356 -0.000002 0.000002 -18.592899 -10.641499 37.789476 14.809875 0.000001 0.000000 -18.765797 -30.285940 24.308356 13.992979 -2.014900 -0.220898 -2.615900 -98.421981 -36.795441 -106.171288 -0.000000 0.000006 -18.633884 79.716784 -16.754985 -149.969863 -0.000005 -0.000006 -18.285084 -71.616692 27.089124 -154.632273
-8.006300 20.879799 10.375412 -31.258487 31.850968 -4.102341 -0.204899 1.598101 7.917309 -11.597850 2.140726 10.574563 0.000003 0.000002 3.404096 0.124307 -17.060954 -1.469186 -0.000001 -0.000002 7.928602 48.855226 -9.619637 -10.097181 0.000003 0.000000 2.173905 9.564941 -3.505412 11.563500 2.833802 -1.396299 4.843297 14.431573 3.170633 21.075766 4.363592 -0.000001 -0.000004 2.148587 26.115698 -89.449305 -0.000001 0.000000 -10.306890 587.276986 -183.804844 536.071823 0.000009 -0.000002 -12.404896 -4.780597 362.067672 -313.289958 -2.354799 -1.897198 5.063101 -8.666073 -2.824279 13.284989 -4.375788 0.000002 -0.000005 20.980780 -11.998660 131.319129 0.000003 0.000001 -10.005000 -607.546857 -177.383756 -539.338238 -0.000002 0.000004 -13.174906 -228.941603 -152.654673 115.965110 2.240600 0.386806 -2.614103 130.210221 -40.691415 141.012220 -0.000004 0.000003 -18.592901 -10.353762 37.377066 14.515687 0.000001 0.000001 -18.765800 -31.204491 24.449110 14.328333 -2.014899 -0.220892 -2.615900 -98.951368 -36.425675 -106.991635 -0.000001 0.000004 -18.633888 79.808732 -17.096047 -149.975149 -0.000004 -0.000006 -18.285084 -71.700266 27.103207 -154.584584
-8.050302 20.781599 10.419609 -31.165733 32.732715 -4.083239 -0.204898 1.598101 7.917308 -11.750094 1.779732 10.475063 -0.000001 0.000001 3.404102 0.099219 -17.030628 -1.466215 -0.000004 -0.000001 7.928606 49.426602 -9.643330 -10.045682 0.000001 -0.000002 2.173905 9.578242 -3.513403 11.695257 2.833803 -1.396301 4.843306 14.393867 3.275554 21.264978 4.363587 -0.000001 -0.000001 2.554059 25.784611 -90.202156 -0.000001 0.000000 -10.306893 587.662045 -183.966241 535.940793 0.000008 -0.000002 -12.404896 -4.727214 362.134663 -313.332961 -2.354800 -1.897200 5.063100 -8.974768 -3.046996 13.381196 -4.375794 0.000002 -0.000012 18.978615 -9.651632 130.594474 0.000000 -0.000001 -10.004992 -604.748118 -177.742286 -538.525391 -0.000001 0.000005 -13.174898 -238.096460 -154.609528 117.621554 2.240600 0.386802 -2.614102 130.788383 -40.420301 142.037376 -0.000001 0.000004 -18.592901 -10.365985 37.062823 14.397788 0.000001 0.000001 -18.765802 -31.790047 24.633200 14.425745 -2.014899 -0.220895 -2.615898 -99.482661 -35.962367 -107.772284 -0.000002 0.000004 -18.633888 80.072329 -17.312723 -149.991186 -0.000001 -0.000006 -18.285084 -71.698613 27.112595 -154.591278
-8.088301 20.695000 10.449409 -31.070507 33.499052 -4.079850 -0.204896 1.598102 7.917307 -11.903762 1.484555 10.423477 0.000000 0.000002 3.404103 0.062210 -17.002487 -1.463247 -0.000000 -0.000004 7.928601 49.852379 -9.638369 -10.042640 -0.000000 -0.000001 2.173897 9.620707 -3.511354 11.832040 2.833807 -1.396303 4.843307 13.303732 3.242612 21.261025 4.363591 -0.000000 -0.000001 3.835538 25.226288 -90.669928 -0.000001 -0.000003 -10.306894 588.134803 -184.094867 535.823860 0.000010 -0.000003 -12.404898 -4.802400 362.189495 -313.441288 -2.354795 -1.897203 5.063099 -9.055023 -3.077106 13.474269 -4.375791 -0.000002 -0.000006 16.884453 -7.723259 130.024494 -0.000001 0.000003 -10.004996 -602.283349 -177.945115 -538.192843 -0.000001 0.000010 -13.174894 -245.490850 -156.068019 119.408140 2.240602 0.386804 -2.614106 131.424601 -40.239919 143.097599 -0.000000 0.000003 -18.592899 -10.393063 36.821697 14.306914 0.000001 0.000001 -18.765800 -32.225734 24.997973 14.299272 -2.014897 -0.220894 -2.615899 -99.971983 -35.423140 -108.487084 -0.000001 0.000007 -18.633883 80.480945 -17.424224 -150.039503 -0.000002 -0.000005 -18.285084 -71.638186 27.123692 -154.638092
-8.121502 20.624401 10.466503 -31.035942 34.162612 -4.033935 -0.204902 1.598102 7.917305 -12.044056 1.264171 10.395577 0.000002 0.000002 3.404102 0.035772 -16.989151 -1.461327 -0.000004 -0.000001 7.928597 50.219908 -9.639509 -10.098937 0.000003 0.000000 2.173905 9.667328 -3.479439 11.983866 2.833802 -1.396299 4.843306 14.314019 3.175412 21.546528 4.363596 0.000000 0.000001 3.381612 25.498341 -91.644056 -0.000000 -0.000003 -10.306893 588.551499 -184.206035 535.726598 0.000008 -0.000001 -12.404897 -4.804504 362.229111 -313.647942 -2.354801 -1.897199 5.063097 -9.969790 -3.605855 13.203460 -4.375788 0.000005 -0.000003 16.177387 -5.742606 129.886046 -0.000001 -0.000001 -10.004996 -600.467065 -178.201111 -538.117765 -0.000001 0.000007 -13.174904 -250.981776 -157.013099 121.025980 2.240597 0.386805 -2.614107 132.107893 -40.058083 144.124682 -0.000001 0.000003 -18.592901 -10.556785 36.712858 14.287884 0.000000 -0.000000 -18.765799 -32.445270 25.138250 13.900181 -2.014902 -0.220894 -2.615902 -100.347001 -34.892544 -109.123549 0.000000 0.000009 -18.633884 80.877616 -17.484833 -150.090320 -0.000002 -0.000006 -18.285082 -71.578211 27.137289 -154.685671
-8.147601 20.570099 10.471504 -31.090939 34.715905 -3.951440 -0.204899 1.598101 7.917305 -12.082159 1.150079 10.402154 0.000002 0.000004 3.404102 -0.005312 -17.010974 -1.462057 -0.000002 0.000000 7.928600 50.485555 -9.621916 -10.155778 0.000002 -0.000001 2.173906 9.689672 -3.491026 12.085513 2.833804 -1.396300 4.843307 14.093580 3.489604 21.784151 4.363591 0.000000 -0.000004 3.772719 25.079732 -92.413443 -0.000001 -0.000000 -10.306892 588.876944 -184.339730 535.620375 0.000010 -0.000002 -12.404899 -4.674759 362.275365 -313.894922 -2.354794 -1.897199 5.063098 -10.109999 -3.530273 13.020772 -4.375792 0.000002 -0.000001 14.782029 -4.630960 129.908818 -0.000003 0.000001 -10.004991 -599.224736 -178.303249 -538.381028 -0.000001 0.000010 -13.174893 -255.026860 -157.667554 122.430144 2.240598 0.386803 -2.614110 132.803671 -39.891993 145.051361 -0.000002 0.000001 -18.592899 -10.882259 36.652332 14.357845 0.000000 0.000000 -18.765800 -32.432440 25.264586 13.430285 -2.014898 -0.220894 -2.615898 -100.584446 -34.421500 -109.665818 -0.000001 0.000007 -18.633884 81.191975 -17.531962 -150.141710 -0.000004 -0.000007 -18.285084 -71.556989 27.162196 -154.712240
-8.167702 20.531300 10.465412 -31.210997 35.183035 -3.843160 -0.204896 1.598100 7.917309 -12.078281 1.105143 10.421644 0.000001 0.000006 3.404104 -0.032551 -17.042430 -1.472858 -0.000002 -0.000003 7.928606 50.679321 -9.594138 -10.186355 0.000003 0.000001 2.173896 9.752099 -3.521305 12.152158 2.833804 -1.396301 4.843308 13.912048 3.708398 21.916378 4.363597 -0.000000 -0.000004 4.059527 24.834851 -93.030756 0.000001 -0.000002 -10.306893 589.219601 -184.473110 535.501366 0.000008 -0.000000 -12.404896 -4.265930 362.327301 -314.661187 -2.354797 -1.897202 5.063107 -10.180720 -3.453091 12.961390 -4.375793 0.000003 -0.000007 13.751928 -3.790743 129.788921 -0.000005 0.000000 -10.004996 -598.378666 -178.337919 -538.586808 0.000000 0.000009 -13.174902 -258.425152 -158.273733 123.526922 2.240602 0.386803 -2.614105 133.447935 -39.700522 145.844182 0.000000 0.000004 -18.592899 -11.169511 36.647131 14.396311 0.000000 0.000001 -18.765800 -32.399484 25.387287 13.029272 -2.014897 -0.220896 -2.615901 -100.728461 -34.054504 -110.143829 -0.000001 0.000008 -18.633886 81.341105 -17.592892 -150.191639 -0.000003 -0.000006 -18.285088 -71.604992 27.198486 -154.697624
-8.181303 20.507402 10.450802 -31.376369 35.545189 -3.730492 -0.204898 1.598099 7.917303 -12.091860 1.152018 10.497111 -0.000002 0.000005 3.404099 -0.037921 -17.082523 -1.475763 -0.000002 0.000001 7.928599 50.862564 -9.632883 -10.228838 0.000005 0.000000 2.173906 9.814931 -3.591686 12.227163 2.833803 -1.396299 4.843307 13.831615 3.853151 21.956137 4.363593 -0.000001 0.000000 4.235320 24.616898 -93.559112 -0.000001 -0.000003 -10.306890 589.590344 -184.588349 535.407710 0.000009 -0.000002 -12.404897 -4.208775 362.331372 -314.930706 -2.354799 -1.897197 5.063107 -10.246080 -3.385174 12.867862 -4.375792 0.000002 -0.000003 13.007203 -3.124160 129.662836 0.000001 -0.000002 -10.004994 -597.899788 -178.349394 -538.772808 -0.000005 0.000006 -13.174902 -260.880879 -158.469186 124.563184 2.240601 0.386804 -2.614109 133.994091 -39.495992 146.457711 0.000001 0.000003 -18.592897 -11.316913 36.696455 14.356989 0.000003 0.000000 -18.765800 -32.471802 25.495040 12.808654 -2.014898 -0.220893 -2.615901 -100.790233 -33.796418 -110.536496 -0.000000 0.000007 -18.633884 81.349868 -17.663677 -150.242346 -0.000005 -0.000007 -18.285084 -71.709876 27.242986 -154.648761
